# xmcd
#
# Track frame offsets: 
#        150
#        13847
#        25723
#        37732
#        49273
#        61274
#        70941
#        80873
#        92129
#        101920
#        111606
#        122837
#        130591
#        142446
#        164324
#
# Disc length: 2309 seconds
#
# Revision: 7
# Processed by: cddbd v1.5.2PL0 Copyright (c) Steve Scherf et al.
# Submitted via: ExactAudioCopy v0.99pb5
#
DISCID=da09030f
DTITLE=Various Artist - Classic Country - TL 626-37 - Bluegrass - CD 2
DYEAR=2003
DGENRE=Country
TTITLE0=Lonzo and Oscar - Country music time
TTITLE1=Vassar Clements - Stompin' grazz
TTITLE2=Lester Flatt and Earl Scruggs - Roll in my sweet baby's arms
TTITLE3=Jimmy Martin - Sunny side of the mountain
TTITLE4=Jimmie Skinner - 'Tis sweet to be remembered
TTITLE5=Bill Monroe And His Bluegrass Boys - Blue moon of Kentucky
TTITLE6=Mac Wiseman - Jimmy Brown the newsboy
TTITLE7=Rose Maddox - Footprints in the snow
TTITLE8=Tanner Bros - Bitter tears
TTITLE9=Louvin Brothers - I don't believe you've met my baby
TTITLE10=Johnny Duncan And The Blue Grass Boys - Last train to San Fer
TTITLE10=nando
TTITLE11=Green River Boys and Glen Campbell - Kentucky means paradise
TTITLE12=Osborne Brothers - Rocky top
TTITLE13=Nitty Gritty Dirt Band feat. Mother Maybelle Carter - Will th
TTITLE13=e circle be unbroken
TTITLE14=Arthur Smith and Don Reno - Feudin' banjos
EXTD=SongTitel Corrections
EXTT0=
EXTT1=
EXTT2=
EXTT3=
EXTT4=
EXTT5=
EXTT6=
EXTT7=
EXTT8=
EXTT9=
EXTT10=
EXTT11=
EXTT12=
EXTT13=
EXTT14=
PLAYORDER=
